<svg version="1" xmlns="http://www.w3.org/2000/svg" width="588" height="588" viewBox="0 0 441.000000 441.000000"><path d="M342.2 27.5c-1.3 1.6-2.2 4.2-2.2 6.2s-.6 3.6-1.5 3.9c-.8.3-1.7 1.3-2 2.3-.3.9-1.8 2.2-3.4 2.8-2.4.9-3.1 1.9-3.6 4.9-1 6-1.2 6.4-4.7 7.9-2.8 1.2-2.9 1.4-1 1.5 2 0 2.2.5 2.2 4.7 0 6.3 3.5 11.2 9.9 14.3 4.9 2.2 6.9 2.3 14.5.4l3-.7-2.2 2.7c-1.2 1.6-2.4 4.3-2.8 6.2-.7 4-6.3 8-10.4 7.6-1.5-.2-4.2.8-6.3 2.2-2.1 1.5-4.1 2.6-4.5 2.6-.4 0-2-2.9-3.6-6.5s-4-7.4-5.4-8.5c-3.1-2.5-9.7-2.6-23.7-.5-5.5.9-21.2 3.1-35 5.1-13.7 1.9-30.6 4.3-37.5 5.4-6.9 1-15 2.2-18 2.5-11.2 1.3-22.1 3.5-24.9 4.9-3.2 1.7-4.6 4.7-6.1 12.5-.6 3-1.2 5.7-1.5 5.9-.2.2-1.8-.7-3.5-2.2-3.1-2.5-7-3.3-10.5-2-2.1.8-4.9 6.6-12.1 25.1-3.2 8.4-6.2 15.3-6.5 15.3-.3 0-1.1-2.5-1.8-5.6-1.1-4.9-1.1-5.8.5-7.5 1.4-1.6 1.6-3.1 1-10.6-.9-12.8-3.9-26.5-6.9-31.5-6.4-10.9-16.1-16.7-31.7-18.8-6.7-.9-8.9-1.6-10.7-3.6-3.5-3.8-13.9-2.8-15 1.5-.3 1.3-1.7 2-4.9 2.5-7.1.9-22.4 5.6-28.6 8.7-6.6 3.3-12 8.3-14.8 13.8-2.5 5-4.4 20.5-3.6 29.7l.6 7.1-5.8 4.1c-7.1 5-13.9 12.2-14.8 15.7-.7 2.8 1.4 6 4.7 7 3.4 1.1 9.9-1.5 14-5.6L25 157v2.7c0 5 4.2 25.7 6 29.8 1 2.2 2.3 6.3 3 9.2 1.5 6.8 13.2 30.6 17.5 35.9 4.1 5 16.9 14.8 22.1 17 2.4 1 5.9 1.4 10.1 1.2 3.4-.2 6.3-.2 6.3 0 0 .1-4.8 5.4-10.6 11.8-11 12.1-12.7 14.9-13.9 22.4-.3 2.5-2 10.3-3.7 17.3-2.8 11.8-2.9 13-1.4 14.6 1.3 1.4 1.6 4.2 1.6 14.3 0 19.4 1.4 21.8 25.5 43.8 8.1 7.4 18.2 16.9 22.4 21.1 8.7 8.6 12.7 10.8 22.7 12.2 6.2.9 7.8.8 12-.8 2.6-1 6.7-3.6 9.1-5.8l4.2-3.9 11.8-.9c14.6-1.1 15.9-1.4 16.6-3.8.5-2.1-1.1-1.9 39.1-4.6 20.2-1.4 22.1-1.3 23.8.2 1.6 1.4 3.5 1.5 16.9.6 12.8-.7 15.3-1.2 16.5-2.7.8-1.1 3.1-2 5.8-2.3 3.8-.5 5.1-.1 8 2 1.8 1.5 5.3 3.4 7.6 4.3 3.9 1.6 4.6 1.6 10.2 0 3.3-.9 7.6-2.7 9.5-4 3.2-2.2 15.1-13.5 22.9-21.8 5.8-6.1 26-43.7 27.1-50.2.2-1.7-.3-14.1-1.1-27.6-1.8-26.3-1.9-24.6 3-27.6 1.5-.9 1.6-1.7.7-6.2-1-5.2-.4-8 1.6-6.8 1.8 1.1 1.3-.9-1-3.8-1.1-1.4-1.7-3.1-1.4-3.7.4-.5-.1-1.9-1.1-3-1.7-1.9-1.6-1.9 3.4-1.9 3.9 0 7.1-.9 12.9-3.7 11.2-5.4 18-12.6 26.8-28.3 3.8-6.9 7.4-13 8.1-13.5 1.4-1.3 10.4-15 10.4-16 0-.4-1.1-1.6-2.4-2.6l-2.4-1.9 2.4-10c1.4-6 3.2-10.9 4.4-12.2 1.8-2 2-3.5 2-17.9v-15.8l-3.8-3.8c-2-2.1-4.6-4.5-5.7-5.4-1.1-1-3.4-3.4-5.1-5.5-1.8-2.2-5.4-4.9-8-6.2-2.7-1.3-7.9-3.9-11.6-5.8-3.7-1.8-7.2-3.4-7.7-3.4s-2.2-.5-3.8-1.1l-2.7-1 3.8-2.2c6.3-3.5 7.9-6.5 8.1-15.1.3-8.4-1.5-12.7-6-14.8-2-.9-2.5-1.8-2.5-4.7 0-2-.7-4.7-1.6-5.9-1.8-2.6-6.5-5.2-9.3-5.2-1.6 0-2-.6-1.8-2.3.2-1.8-.2-2.1-2.3-1.8-1.4.1-3.6 1.1-5 2.1-2.5 1.8-2.8 1.8-8-.1-10.1-3.6-11.5-4-11.8-2.9-.4 1.2-8.2 1.4-8.2.2 0-.5-.6-1.6-1.3-2.6-1.3-1.8-1.5-1.7-3.5.9zm18.8 12c1.1 1.3 1 1.5-.4.9-.9-.3-1.6-1-1.6-1.5s-.5-.9-1-.9c-.7 0-.7.6 0 2 1.3 2.4.2 2.6-2.8.4-2.2-1.5-2.2-1.7-.5-2.9 1.9-1.4 4-.7 6.3 2zm12 3.7c0 .5-.4.8-1 .8-.5 0-1-1-1-2.3 0-1.8.2-1.9 1-.7.5.8 1 1.8 1 2.2zm13.2 2.3c-.2 1.4-.6 2.5-.8 2.5-.2 0-.4-1.1-.4-2.5s.4-2.5.9-2.5c.4 0 .6 1.1.3 2.5zm-15.5 1.7c-.3.8-.6.5-.6-.6-.1-1.1.2-1.7.5-1.3.3.3.4 1.2.1 1.9zm-24.4-.5c-.7.2-1.9.2-2.5 0-.7-.3-.2-.5 1.2-.5s1.9.2 1.3.5zm6.4.9c-.3.3-1.2.4-1.9.1-.8-.3-.5-.6.6-.6 1.1-.1 1.7.2 1.3.5zm-1.2 4.4c.4.6-1 1-3.4 1-2.3 0-4.1.4-4.1 1 0 .5 1 1 2.3 1l2.2.1-2.3 1.9c-1.2 1-2.8 2.1-3.5 2.3-.9.4-.8.8.3 1.6 1.9 1.3 0 1.4-2 .1-1.3-.8-1.3-1.1-.1-1.9.8-.5 1.1-1.6.7-2.6-1-2.6 2.1-5.5 6-5.5 1.8 0 3.6.4 3.9 1zm-36 31.6c1.9.8 7.8 12 7.2 13.7-.2.7-1.6-1.4-3.1-4.6-4.6-9.5-4.4-9.5-27.9-6.3-11.1 1.5-23.8 3.3-28.2 4.1-4.4.7-12.3 1.8-17.5 2.5-5.2.7-13.3 1.8-17.9 2.6-9.5 1.6-17.9 1.8-10.1.3 2.5-.5 12.2-2 21.5-3.3 38.1-5.4 46.4-6.6 54.5-8 9.2-1.5 18.9-2 21.5-1zm64.7 11.1c.8 1 2.6 2.6 3.9 3.6 2.1 1.6 2.4 1.6 2.7.2.5-2.4 1.9-1.8 2.6 1.1 1 4-.6 4.7-4.5 1.9l-3.4-2.6-.3 2.5c-.5 3.6-4.1 3.4-7.7-.4-1.6-1.7-2.4-3-1.8-3 .6 0 1.6.6 2.2 1.4 1.5 1.8 4.9 2.7 5.7 1.4.4-.6.2-1.3-.4-1.7-1.4-.8-2.7-6.1-1.5-6.1.5 0 1.6.8 2.5 1.7zM61 98.2c0 3-.1 3.1-1.9 1.4-1.4-1.3-2.8-1.6-5-1.1-2.7.6-3 1-3.5 5.8-.4 2.9-.7 7.4-.9 10.1-.1 3.2-.7 5.1-1.6 5.4-1.2.4-1.3-1.1-.8-9 .3-5.3.4-9.8.1-10.1-1.1-1.1-5.9 1.4-8.1 4.1l-2.3 2.7v-3.1c0-2.2.7-3.4 2.4-4.3 3.5-1.9 14.6-4.9 18.4-5 2.9-.1 3.2.1 3.2 3.1zM339.2 135c-.1 22.4-.7 41-1.2 43.1-.7 2.7-2.7 5.2-7.1 8.9-3.3 2.9-6.2 5.1-6.4 4.9-.2-.3.3-14.6 1-31.9 2.7-59.8 2.8-60.5 5.2-59.6 1 .4 1.4.2 1-.8-.4-1.1-.1-1.3 1.1-.9.9.3 1.3.2.9-.2-.8-1 3.2-3.6 4.8-3.1.7.2.9 14 .7 39.6zm70.3-34.9c.9 4-.8 5.8-2.8 2.9-1.1-1.5-1.6-1.8-2-.8-.3.9-.7.8-1.2-.5-.4-.9-.4-2.5-.1-3.4.6-1.5.8-1.5 1.7-.3.9 1.2 1 1 .6-.7-.4-1.9-.2-2.1 1.3-1.3 1 .5 2.1 2.4 2.5 4.1zM212 97.6c-.8.2-4.6.8-8.5 1.3-3.8.5-8.6 1.2-10.5 1.6-2.4.5-3.2.3-2.5-.4 1.2-1.2 11.9-2.8 18.5-2.9 2.5 0 3.8.2 3 .4zm188.6 3.6c.4-.4.4.1.1 1.1-.4 1-.7 2.3-.7 2.8 0 2.3-1.9.5-3.4-3.1-2.1-5.4-2-5.8.8-2.7 1.3 1.4 2.7 2.3 3.2 1.9zm-32.3-.1c4.5 3.7 4.3 5.1-.3 1.8-2.5-1.9-3.3-2.1-3.9-1-.7 1.1-.9 1.1-1.3 0-.6-1.6.1-3.9 1.1-3.9.3 0 2.3 1.4 4.4 3.1zm-180.8-.1c-.3.5-1.8 1-3.3.9l-2.7-.1 2.5-.8c3.5-1.1 4.2-1.1 3.5 0zm137.1 4.3c-.3 1.8-1.3 21.2-2.1 43.2-.9 22-1.8 41.8-2.1 44.1l-.5 4.1-6.4 1.1c-3.5.7-11.2 1.8-17.1 2.4-12.7 1.4-14.9 2.7-13.3 8 1.5 5.3 1.3 5.6-4.8 6.1-13.8 1.2-24.8 4.7-31 9.9-.8.6-4.7 1.7-8.6 2.3-4.2.6-7.2 1.6-7.5 2.4-.3 1 .5 1.2 3.7.9 2.2-.2 4.1 0 4.1.5 0 .4-1.6 2.3-3.5 4.3-6.4 6.4-3.8 8.1 2.9 1.8 2.3-2.1 3.2-2.5 4.5-1.7 1 .6 3 .9 4.4.6 2.7-.5 3.3-1.6 3.9-7.1.3-1.9 2-3.1 9.8-6.3 9-3.8 9.9-4 17.5-3.5 10 .6 11.3 1.1 12.9 5.1 1.6 3.6 4.9 5.3 7.1 3.5 2.9-2.4 8.9 4.4 11 12.5.8 3.1 1.5 5.8 1.5 6 0 .2-.9.1-2-.2-1.7-.5-2 0-2 3.1 0 2 .4 3.6.9 3.6s.8 1.4.7 3.2c-.1 2.3.4 3.3 1.5 3.6 1.2.2 1.8-.7 2.3-3.4 1-4.9 1.8-3.7 1 1.4-.4 2.7-1.1 3.9-1.9 3.6-1.9-.8-3 4.8-1.2 6.1 1.3.9 1.3 1.3.1 2.9-.7 1.1-1.1 2.3-.8 2.8 1.1 1.7.4 12.3-1 16.2-1.2 3.5-1.5 3.7-2.3 2-.6-1-.8-2.4-.6-3.1.7-1.8-4.8 0-6.1 2-.8 1.2-.7 2.3.2 3.8 1.1 1.8 1.1 2.4-.5 4.2-1 1.2-2.2 2.5-2.7 2.8-.5.4-.6 1.4-.3 2.2.3.9-.1 1.7-1.4 2-1 .3-2.7 1.9-3.6 3.7-1 1.8-3 4.8-4.6 6.8-1.7 2.2-2.5 4.2-2.1 5.4.3 1 .2 1.7-.3 1.6-.4-.2-2 .9-3.4 2.2-1.4 1.4-3.9 3.3-5.7 4.2-2 1-4 3.4-5.4 6.4-3.1 6.7-5.6 9-7.9 7.5-3.2-1.9-4.4-1.3-6.7 3.4-1.2 2.5-2.6 4.5-3.1 4.5s-1.1 1-1.5 2.2c-.6 2.5-7.8 7.2-11.1 7.4-2.9.1-7.6 2.4-10.5 5-1.4 1.3-4.7 2.9-7.5 3.6-2.7.7-5.6 2.1-6.3 3-1.6 2.2-5.8 2.3-6.6.3-.3-.9-2.3-2.4-4.4-3.3-2.1-1-4.7-2.5-5.6-3.5-1.7-1.6-1.4-1.7 5.1-1.1 10.7 1 19.5-1.4 33.2-9.2 9.4-5.2 33.3-26.9 42.4-38.3 8-10 17.8-27.4 21.1-37.4 5.7-17.2 3.9-37.1-4.2-44.9-4-3.9-12.8-8.8-15.8-8.8-2.9 0-4.8 1.6-4.1 3.4.4.9.5 1.6.3 1.6-.3 0-1.2.3-2.2.7-1.2.5-1.6.2-1.2-.8.2-.8-.4-2.2-1.4-3.2-1.3-1.2-1.8-1.3-1.8-.4 0 1.4-4.2 3.8-9.5 5.4-2.5.7-3 1.4-2.7 3.5.1 1.5-.2 2.9-.8 3.3-3.8 2.3 2.4 4 7.9 2 4.5-1.5 4.8-1.3 2.6 2.5-2.2 3.9-1.8 8.5 1.1 11.9 2.4 2.9 3.1 3.1 8.9 3.1 3.4 0 7.9-.7 9.8-1.5 4.1-1.7 9.7-6.8 9.7-8.7 0-.7.8 0 1.7 1.7 1.1 2 1.8 6.3 2.1 13.1.4 9.4.2 10.4-2.3 15.5-3.4 6.7-9.1 14.8-12.1 17.2-1.3.9-2.6 2.6-2.9 3.7-.9 2.9-1.8 2.5-3.6-1.9-1.2-2.8-2.8-4.3-6.1-5.9-7.4-3.6-14-2.3-19.1 3.7-2.2 2.7-2.7 4.2-2.7 8.7 0 4.5.4 5.9 2.5 7.9 3.2 3.3 7.7 3.6 14 .9 5.2-2.2 5.7-1.7 3.3 2.7-2.6 4.6-6.7 8.1-11.5 9.7-2.8.9-3.3.8-4.7-1.3-5.6-8.5-23.3-2.6-22.4 7.4.2 2.7 1.1 4.1 3.7 5.8 3.6 2.5 9.8 3.1 13.2 1.3 3.1-1.7 2.3.8-1.3 4.2-1.8 1.7-4.9 4.1-6.8 5.3-4.8 3-17.4 7.5-21.1 7.5-1.6 0-4.7.9-6.9 2-5.1 2.6-6.4 2.5-12.7-.6-5.8-3-9.9-7.5-12.8-14.5-1.5-3.5-4.2-6.6-10.1-11.8-7.7-6.6-8.5-7.7-14.2-19.3-7.2-14.8-10.2-24.9-10.1-34.4 0-11.4 5.3-22.4 12.8-26.7l3.1-1.8v4c0 4.7 3.4 8.1 8.1 8.1 3.1 0 3.6-.9 1.7-2.8-.7-.7-.8-1.2-.4-1.2.5 0 .3-.6-.3-1.4-.7-.8-1.6-2.8-2.1-4.5l-.9-3.1 3 1.5c1.6.9 3.8 3.3 4.9 5.5 1.9 3.7 1.9 4 .2 5-1.3.8-.3 1 4.4.7 8.6-.5 11.4-2.5 11.4-8.2 0-6.3-2.9-9.2-10.4-10.6-5.4-1-7.4-.9-12.3.7-1.7.5-1.7.4.1-1 1.2-1 4-1.6 7-1.7 2.8 0 6-.4 7.1-.9 1.8-.7 1.6-1-1.7-2.4-2.1-.9-4.9-1.6-6.3-1.6-1.4 0-2.5-.5-2.5-1.1 0-1.9-9.6-.3-14.2 2.3-2.8 1.6-5.3 4.3-8 8.7-2.1 3.4-3.8 6.5-3.8 6.8 0 .3-1 1.9-2.2 3.6-2.1 2.9-2.2 4.1-2 15.8.2 9.5.9 15.2 2.8 22.5 1.3 5.5 2.6 10.7 2.9 11.7.2.9.6 2.1 1 2.6.3.5.9 3.1 1.4 5.8.5 2.6 1.5 6.1 2.2 7.8.7 1.6 1.1 3.6 1 4.3-.1.7.4 1.1 1.1 1 .7-.2 1.2.3 1 .9-.1.7.4 1.3 1.2 1.3.8 0 1.7 1.2 2 2.6.4 1.5 1.4 3.3 2.1 4.1 2.1 2.1 1.8 4.3-.5 4.3-5.3 0-18.2-20.3-21.4-33.8-.7-3.2-1.9-6.8-2.5-8-.6-1.2-1.8-5.8-2.7-10.4-1.8-9.4-1.4-20.7 1-30 1.7-6.3 8.6-18.4 10.3-18.1.6.1 1.4-.9 1.7-2.2.6-2.2 8.2-8.5 10.4-8.5.5 0 2.1-.9 3.6-2.1 2.3-1.8 3.9-2.1 12.9-2 7.4.1 12 .7 16.7 2.3 6 1.9 17.1 8.4 21.6 12.7 3.9 3.6 6.9 5 8.4 4.1 1.3-.8 1.3-1-.1-1-1.5 0-8.5-6.7-10.5-10.2-.9-1.4-2.3-2.3-10.4-6.5-1.9-1-3.7-2.1-4-2.5-.8-1.1-9-2.7-13.6-2.8-3.6 0-4.5-.5-6.9-3.5l-2.7-3.6-6.1.7c-7 .8-8.5 2-5.6 4.7 1 1 1.9 2.4 1.9 3.2 0 1.6-6.2 3.1-8.1 1.9-.8-.4-1-.3-.5.4.4.7-.3 1.4-1.9 1.8-1.4.3-2.5 1-2.5 1.5 0 1.5-6.4 4.3-6.8 3-.2-.6-.7-.9-1.2-.6-1 .6-3.5-2.4-2.6-3.2.4-.4 1.1-.1 1.5.6.5.7 1.4 1 2 .7.6-.4 1.1-.2 1.1.3 0 .6.7 1.1 1.6 1.1.8 0 1.3-.4.9-.9-.3-.5.3-1.2 1.4-1.6 1-.3 2.6-1.4 3.6-2.5 1.8-2 1.7-2-2.8-2-2.5 0-4.9.5-5.2 1-.4.6-1.1.8-1.6.4-.5-.3-.7-1-.4-1.5.4-.5-.2-.9-1.3-.9-2.9 0-8.2-2.1-8.2-3.2 0-.6 2.7-.7 7.5-.3 8.3.8 14.6-.1 11-1.5-1.1-.5-6.2-.9-11.2-.9-5.1-.1-9.3-.3-9.3-.6 0-.2 3.4-9.1 7.6-19.7 12.5-32 15.1-38.7 20.9-53.8 3.1-8 6-15.4 6.4-16.6.6-1.4 2.2-2.3 4.8-2.7 5.8-1 35.5-5.3 56.3-8.1 10.2-1.4 21.4-3 25-3.6 3.6-.6 13.7-1.9 22.5-3s20.5-2.6 26-3.4c13.1-2 15.8-2.2 16.8-1.8.4.2.5 1.8.3 3.5zm29.6-2.4c.9 1.1 1.4 2.2 1 2.5-.6.7-4.2-2.3-4.2-3.6 0-1.4 1.5-.9 3.2 1.1zm60.9 4.4c-.6 1.4-2 3.1-3.3 3.8-2.1 1.1-2 1 .5-2 1.5-1.8 2.7-3.7 2.7-4.3 0-.6.2-.9.5-.6.3.3.1 1.7-.4 3.1zm7.2 8.4c-.9.7-2.2 1.3-2.7 1.2-.6 0-.6-.3.1-.5.7-.3.9-1.2.6-2-.3-.8 0-1.4.7-1.4.6 0 .8-.5.5-1-.4-.6-.3-1.9.1-2.8.5-1.3.9-.9 1.5 1.8s.4 3.8-.8 4.7zm3.7-4.3c0 .3-.4.8-1 1.1-.5.3-1 .1-1-.4 0-.6.5-1.1 1-1.1.6 0 1 .2 1 .4zm-260.9 6.3c1.2 1.5 1.2 1.6-.3 1-.9-.3-1.9-.3-2.1.1-.2.4-.2.1 0-.6.5-2.3-3.1-.8-4.4 1.8-5.6 11.3-9.5 21.9-8.8 23.8.3.9.3 1.3-.1.9-.7-.7-2.1 2.4-8.4 17.8-1.7 4.4-4.5 11.1-6.1 14.9-3 7.1-3.6 10.2-1.9 9.1.6-.3 1-.1 1 .4 0 1-.6 1.2-2.7 1-1.1 0-2.1 3.8-2.2 8.4-.1 2.6.5 4.2 1.9 5.4 1.1 1 2 2.5 2 3.4 0 .9.7 2.2 1.5 2.9 1.6 1.3 2.1 4.5.6 3.6-1.8-1.2-8.1-11.6-8.7-14.3-.5-2.6 1.2-8.2 5.1-16.8 1.9-4 13.7-33.2 19.2-47.5 6.3-16.2 6.8-17 10.2-17 1.6 0 3.5.8 4.2 1.7zm209.9.8c1.7.9 3 1.8 3 2 0 .2-.9 1.9-2 3.7-2 3.3-2.8 11.8-1.1 11.8.4 0 1.1-2 1.3-4.4.5-4 4-10.6 5.6-10.6.4 0 .7 2.5.7 5.7 0 6.7 1.9 8.3 2.9 2.4.9-5.8 3.1-6.7 11.4-4.5 3.7.9 7.5 2.1 8.4 2.6 2.4 1.2 3.9 7.1 2.7 11-.5 1.7-.6 3.4-.3 3.7.9 1 5.3-4.8 6-7.7 1.1-5.1 1.2-5.3 4.1-4.6 5.3 1.3 6.5 3.2 5.9 9.4l-.6 5.5 1.9-3.5 2-3.5.1 4.3c0 4.9 1 4.8 4.1-.2l1.9-3.1v4.4c0 3.6-2.9 18.8-4.6 24-.3.9-1.4 0-3.3-2.6-2.9-4-5.9-5.4-14.6-6.8-4.4-.7-10 .9-9 2.5.3.5 2.4 1 4.5 1 5.4 0 14.1 2 16.5 3.7l2 1.5-2-.6c-7.5-2.1-12.7-2.6-19.9-2l-8.1.6-6.5-4.3c-8.6-5.6-19-8.9-28.3-8.9-10.8 0-12-.5-11.4-4.8.4-1.9 1.3-4.2 2.2-5.2.8-.9 2.6-4.5 4-8 5.5-14.1 12.2-18.8 20.5-14.5zm61.6 3.1c1.1 2.7 1.2 4 .4 4.8-.8.8-.9.6-.5-.7.5-1.2.2-1.7-.9-1.7s-1.6-.9-1.6-3c0-4 .8-3.8 2.6.6zM50 126.5c1 1.2.8 1.6-1.5 2.5-3.3 1.3-3.6 1.1-2.8-1.8.6-2.5 2.5-2.9 4.3-.7zm105 8.9c0 .3-.4.8-1 1.1-.5.3-1 .1-1-.4 0-.6.5-1.1 1-1.1.6 0 1 .2 1 .4zm-45.9 7.8c1.2 2.3 2.5 7.1 3 10.7.9 7.6 0 9.1-5.8 9.1-2.5 0-4.3-.9-7-3.5-3-2.9-4.4-3.5-8.2-3.6h-4.6l4.1-1.8c2.3-1.1 6.6-4.7 10-8.4 3.2-3.7 6-6.6 6.1-6.7.2 0 1.2 1.9 2.4 4.2zM362 154.6c0 .2-1.7.4-3.7.3-2.9 0-3.3-.2-1.8-.8 1.8-.7 5.5-.4 5.5.5zm-307.9.5c1.1.6 8.5 1.1 16.5 1.2 12.3.2 14.1.4 11.7 1.4-1.5.7-4 1.2-5.5 1.3-1.6 0-3.4 1-4.7 2.6-4.3 5.5.8 7 11.6 3.3 3.4-1.1 7.4-1.9 9-1.7 3.2.5 3.2.5-9 4.3-4.8 1.5-10.2 3.9-11.8 5.3-2 1.6-4.1 2.4-6.2 2.4-8.2-.4-12.7-.1-18.5 1.4-5.8 1.4-8.5 1.3-7-.2.4-.3 4.5-1.5 9.3-2.6 9.2-2.2 10.9-3.6 8-6.8-2.2-2.4-4.2-2.5-10.9-.4-10.7 3.4-11.4 4-12.9 9l-1.4 4.7-1.2-7.4c-.7-4.1-1.5-10-1.8-13.2l-.5-5.7h11.7c6.4 0 12.5.5 13.6 1.1zm296.9 9c.9 13.7 6.5 19.6 19.4 20.6 5 .4 7 .1 10.3-1.6 4.4-2.2 8-6.5 9.2-10.9.8-2.8 3.6-4.1 5.2-2.5.6.6.5 3 0 6-.6 2.8-1.1 7-1.2 9.4-.2 7.7-1.1 10.9-3.1 12-2.2 1.2-7.2.4-6.3-1 .3-.5-1-1.5-2.9-2.1-1.9-.6-3.7-1.9-3.9-2.8-.3-1.2-.5-1-.6.6-.1 1.7.8 2.7 3.3 3.7 4.6 1.9 5.2 3.1 2 3.9-1.4.4-3.9 1.7-5.5 2.8-3.1 2.3-2.8 2.3-14.1-.9-1.2-.4-1.8 0-1.8 1.1 0 .9.5 1.6 1.1 1.6 1.8 0 9.8 5.4 9.9 6.6 0 .6.8 1.1 1.8 1.1 5.3-.1 8.3.4 7.7 1.2-.8 1.4 3.5 2.5 4.8 1.2.6-.6 3-1.1 5.3-1.1 4 0 6.7-2.1 4.4-3.5-.6-.4-1-1.9-1-3.5 0-2.2-.7-3.3-2.7-4.4l-2.8-1.5 3.3-1.2 3.4-1.2-.7-6.6-.6-6.6 2 3.1c2.8 4.5 8.1 7.4 15.1 8.2l6.1.7-6.8 11.2c-7.4 12.3-11 15.7-22.6 21.8-7.9 4-10.7 4.3-17.7 1.5-11-4.3-28.4-20-33.6-30.2-3.3-6.5-3.2-12.7.1-15.8 1.4-1.3 2.5-3 2.5-3.8 0-.9.7-1.3 1.9-.9 1.7.4 1.9-.1 1.8-5.7-.2-6.4 3.8-18.9 5.8-18.3.6.2 1.2 3.7 1.5 7.8zM136 160c0 .5-.6.7-1.4.4-1.8-.7-7.2 2.1-8 4.1-1.3 3.5-.6 9.2 1.3 10.9 1.4 1.3 1.7 2.3 1.1 3.5-2.1 3.7-6 14.6-6 16.8 0 1.3 1.1 4.6 2.5 7.2 3.7 7.4 2.8 9.3-11.5 25.8-2.5 2.8-6.1 7.1-8.1 9.5-6.9 8.3-20.5 13-29.9 10.5-4.1-1.1-16.7-10.4-21.2-15.7-3.3-3.7-7-10.7-13.4-24.8l-3.3-7.2h4.5c5.3 0 18.1-2.8 18.9-4.1.4-.5 1.3-.9 2.1-.9 1 0 1.4 1.2 1.4 4.5s-.4 4.5-1.5 4.5c-1.7 0-2.2 6.5-.5 7.5.5.3 3.8.7 7.4.8 5.1.2 6.8-.2 8.5-1.7 1.2-1.1 3.1-2.4 4.3-3 3-1.5 3.3-3.7.9-6.7-2.3-2.9-3.9-1.9-2.3 1.6 1 2.2.9 2.5-.8 2.5-1.1 0-2.4.8-2.9 1.9-1.3 2.4-5.5 3.5-8.1 2.1-1.8-1-2-2.1-2-14.5 0-12.5.1-13.5 1.8-13.5 2.2 0 4.3 2.2 6.1 6.4l1.2 2.9 7.8-.6c8.2-.6 20-4.4 23.4-7.5 1.6-1.4 1.8-2.6 1.3-7.3-.5-5.1-.3-5.8 1.9-7.9 2.1-2 2.8-2.2 5-1.2 2 .9 2.7.8 4.1-.6 4.8-4.8 8.9-7.2 12-7.2 1.9 0 3.4.4 3.4 1zm237.6.6c3.6 1.7 7.8 7.8 7 10-.7 1.9-7 1.8-8.6-.1-.6-.8-.9-1.8-.6-2.3.3-.5-.4-2.1-1.5-3.6-2.7-3.5-7.2-3.5-9.5-.1-1.6 2.5-3.4 2.5-3.4 0 0-4.9 9.7-7.2 16.6-3.9zm10.5 2.4c3.3 1.8 2.6 9.1-1.2 13.5-5.4 6.2-13.2 6.7-21.5 1.6-2.7-1.7-7-7.8-6.1-8.7.2-.2 1.7.1 3.3.6 3.4 1.2 13.7 3.9 17.5 4.7 3.3.6 7.9-2.2 7.9-4.9 0-1-.7-3.2-1.5-4.8-1.7-3.2-1.4-3.6 1.6-2zM135 164c0 2.1-4.5 10-5.5 9.7-1.5-.6-1.1-8.7.6-9.8 1.9-1.2 4.9-1.1 4.9.1zm232-.1c0 1.3-2.6 3.2-3.3 2.4-1.4-1.3-.6-3.3 1.3-3.3 1.1 0 2 .4 2 .9zm-262.5 6.7c2 4.8 1.9 8.7-.2 10.6-2.7 2.3-15 5.8-20.5 5.8-4.1 0-5-.3-5.7-2.3-1.1-2.8-1-2.9 4.1-3.8 5.6-1 13.8-4 16.9-6.1 2.3-1.6 2.3-1.6.4-2.3-5.6-1.9-6.4-3.7-2-4.6 5.1-1.1 5.4-1 7 2.7zm312.1 1.9c3.2 2.1 4.7 7 2.8 9-1.8 1.8-2.4 1.8-5.8.5-2-.7-2.6-1.7-2.6-3.8 0-2.9-1.6-5.2-3.6-5.2-.7 0-1 .8-.7 2.1.4 1.6.2 2-.8 1.7-.8-.3-1.3-1.3-1.3-2.2.2-2.3-1.2-2-3 .6-1.7 2.4-3 2-2-.6 1.7-4.4 11.6-5.7 17-2.1zm-324.6.3c0 2.4-6.3 6.2-10.2 6.2-1.9 0-.2-4.5 2.2-5.7 2.8-1.4 8-1.7 8-.5zm339.6.6c1 .8 1.5 1.8 1.1 2.2-.4.4-1.7-.2-2.9-1.4-2.5-2.5-1.3-3 1.8-.8zm-352.7 3c-.7 1.4-1.6 2.6-2.1 2.6-1.5 0-.8-3.9.9-4.9 2.4-1.3 2.6-.8 1.2 2.3zm-17.2 4.1c.3.9.3 1.8 0 2.1-.6.7-4.7-1.8-4.7-2.8 0-1.5 4.1-.8 4.7.7zm-6.9 1.3c1.2.8.7 4.2-.7 4.2-.3.1-2.5.5-4.9.9-2.3.5-4.4.5-4.7.1-.9-1.5 4-5 8.5-5.9.3 0 1.1.3 1.8.7zm356 1.9c2.4.8 5.9 1.3 7.8 1.1 3.3-.4 3.5-.3 2.9 2.1-1 4.1-2.1 4.6-9.5 4.6-6.1 0-7.3-.3-9.4-2.5-1.4-1.4-2.8-3.7-3.1-5.2-.7-2.6-.6-2.7 3.2-2.2 2.1.3 5.7 1.2 8.1 2.1zM44 182.6c0 .3-.9 1.9-2.1 3.5-1.8 2.6-1.9 3-.4 3.5 2.1.8 15.1-1.5 18.5-3.3 5.2-2.7 5.5 3.9.2 7-3.8 2.3-16.9 4.7-19.7 3.7-1.2-.4-2.5-2.3-3.2-4.6-1.8-6.1-1.6-8.4 1-9.4s5.7-1.3 5.7-.4zm97.5 9.4c.3.5.1 1-.4 1-.6 0-1.1-.5-1.1-1 0-.6.2-1 .4-1 .3 0 .8.4 1.1 1zm195.9 15.4c3.3 4.3 2.9 5.4-1.3 3.6-3.7-1.5-8.1-6.8-9.9-11.8-1.2-3.4-1.1-3.7 1.5-5.8l2.8-2.2 2 6.3c1.1 3.4 3.3 7.9 4.9 9.9zm-14.4-5.5c0 3.7-.5 10.4-3.5 49.1-1.5 19.5-6.9 90.8-8.1 107.3-.6 8-1.7 10.7-3 7.3-.3-.8.1-9.7 1-19.8 3-34.7 4.7-55.4 6.2-74.3.8-10.5 2.1-26 2.9-34.5.8-8.5 1.7-20.8 2.1-27.3.4-6.4 1.1-11.7 1.5-11.7.5 0 .9 1.7.9 3.9zm-5-2c0 .5-2.5 1.7-5.5 2.6-3 .8-5.4 1.9-5.3 2.3.3 1.4-1.5 13.7-2.3 16l-.9 2.3-3.3-2.5c-1.9-1.4-4.7-3.1-6.3-3.6-3.6-1.3-6.9-8-5.1-10.3 1.2-1.4 13.4-4.9 23.2-6.6 2.8-.5 5.1-.9 5.3-1 .1 0 .2.3.2.8zm-184.7 15c1.2 2 1.5 3.9 1.1 6.2-1 5.2-2.1 6.7-5.6 7.4-2.6.6-3.5.3-4.9-1.4-1.8-2.1-1.7-2.3 2.1-7.4 2.2-2.9 4-5.8 4-6.5 0-2.1 1.5-1.3 3.3 1.7zm219.4 8.7c2.6 2.1 4.9 3.9 5.1 4 .2.1-.8 1.9-2.3 3.9-1.4 2.1-2.5 4.4-2.5 5.1 0 2.1-2.3 1.7-6.5-1.1-4.5-3.1-5.7-2.8-1.4.4 5.8 4.3 12.9 3.7 12.9-1.1 0-3.1 2.5-1.5 2.8 1.9.3 2.5-.5 3.9-4.4 7.7-2.5 2.6-6.3 5.6-8.3 6.7-2.5 1.4-2.8 1.8-1.1 1.3 1.4-.4 3.7-1.5 5.2-2.5 3.8-2.7 5.1-2.4 4.4.8-.5 2.1-.4 2.4.4 1.3.5-.8 1-2.4 1-3.6 0-1.1.8-2.8 1.8-3.7 1.7-1.6 2-1.3 5.5 4.8 2 3.5 3.7 6.8 3.7 7.2 0 .5-1.4 1.7-3 2.6-1.7 1-6.8 4.9-11.5 8.8-4.7 3.8-8.8 6.9-9.2 6.9-.8.1-3.2 3.4-11.1 15-2.4 3.6-4.7 6.6-5.1 6.8-1 .3-.2-14.5.9-17.8.5-1.4 1.7-4.9 2.8-7.7 1.1-2.9 1.9-6.1 1.7-7-.2-1-.9-7.9-1.6-15.4-1.2-13.8-.7-21.5 1.3-20.3.7.4.8-.2.3-1.7-1.7-5.9-1.5-6.1 1.3-1.8 1.7 2.6 3.6 5 4.4 5.5.8.5.6-.2-.5-1.6-4.2-5.9-4.2-6.5-.6-10.9l3.4-4 2.7 2.8c1.5 1.6 4.9 4.6 7.5 6.7zm-17.3-7.1c-.4.8-1 1.5-1.5 1.5s-.9-.7-.9-1.5.7-1.5 1.5-1.5c.9 0 1.2.6.9 1.5zm-196.1 4.8c.3.7-.4 6-1.5 11.8-1 5.7-2.5 14.4-3.3 19.4-.8 4.9-1.8 11.5-2.4 14.5-2.9 15.8-6.3 35.3-7.1 41-.5 3.6-1.4 8.8-2 11.5-.6 2.8-1.8 9-2.6 14-5.7 35.8-8.2 47.1-10 45.2-.2-.2.5-5.3 1.6-11.3 2.3-13.1 4.9-27.8 9-51.9 1.7-9.9 4-23.2 5.1-29.5 1.1-6.3 2.7-15.3 3.4-20 .8-4.7 2.6-15.3 4-23.5 1.5-8.3 2.9-16.7 3.2-18.8.6-3.8 1.7-4.8 2.6-2.4zm34.7-.3c0 .5-.4 1-1 1-.5 0-1-.5-1-1 0-.6.5-1 1-1 .6 0 1 .4 1 1zm-28 2c0 .5-.5 1-1.1 1-.5 0-.7-.5-.4-1 .3-.6.8-1 1.1-1 .2 0 .4.4.4 1zm171 2.5c0 .9-.7 1.8-1.6 2.2-1.8.7-3.9-1.1-3-2.6 1.1-1.7 4.6-1.3 4.6.4zM121.5 230c.4 1.1 1.8 2.8 3.2 3.7 2.3 1.5 2.5 2.2 2.1 6.9-.3 3.5-1.2 6.1-2.9 8.2-3.3 4-10.4 8.8-16 10.7-4.3 1.5-4.8 1.5-9.2-.4-4.1-1.8-4.7-2.4-4.7-4.9 0-2.5.9-3.4 5.7-6.3 3.8-2.2 8.1-6.2 12.6-11.7 3.8-4.5 7.3-8.2 7.8-8.2.4 0 1.1.9 1.4 2zm157 4.6c1.4.6 1 1-1.5 2-5 2.1-7 1.8-4.1-.6 2.5-2.2 3.1-2.3 5.6-1.4zm92.1 3.2c-1 .2-2.2 0-2.8-.6-.6-.6 0-.7 1.9-.4 2.1.5 2.3.7.9 1zm2.9 5.2c1 1.1 1.3 2 .7 2-.6 0-1.6-.9-2.2-2-.6-1.1-.9-2-.7-2 .2 0 1.2.9 2.2 2zm-247.2 24.7c-.4 2.1-.9 3-1.9 2.6-1.8-.7-7.4 3.4-7.4 5.5 0 .9-.4 2.3-.9 3.1-.7 1.1-1.2.8-2.6-1.2-1.7-2.6-1.7-2.7 1.5-5.4 3.8-3.3 11.2-8.4 11.5-8.1.2.2 0 1.7-.2 3.5zm177.2 30.2c.7 1.2-1.2 2.4-2.5 1.6-1.1-.7-.4-2.5 1-2.5.5 0 1.1.4 1.5.9zm46.9 17.6c-5.4 7.3-11.8 17.3-14.6 23-3.9 7.8-7 16.6-6.6 18.5.4 1.8-1.8 2.3-3.3.7-2-1.9 0-39 2.1-41.1.8-.8 5.8-5.1 11-9.6l9.5-8.1 1.4 7.7c.8 4.6 1 8.2.5 8.9zM145.5 312c.7 3.2 10.4 22.8 12.7 25.7.6.7.7 1.3.4 1.3-.4 0 .3 1 1.4 2.2 1.1 1.2 1.8 2.8 1.5 3.6-.2.7.2 1.5 1 1.8.8.4 1.5 1.2 1.5 1.9s.7 1.8 1.6 2.6c.8.7 2.4 3 3.5 5.1 1.1 2.1 3.5 5.2 5.5 7 8.4 7.6 8.5 7.8 7.2 8.2-2.4.8-49.9 3.8-50.5 3.2-.6-.5.9-10.8 5.7-39.6 1-6.3 2.4-15.1 3-19.5.6-4.4 1.4-8.9 1.7-9.9.5-1.8.6-1.8 1.8.5.7 1.3 1.6 4 2 5.9zm-29.8 15.5c.2 0-2.3 15-5.2 31.2-.3 1.8-.9 3.3-1.3 3.3s-2.7-3.5-5.2-7.7-6.6-10-9.2-12.8l-4.7-5.2 1.4-3.9c.8-2.1 1.4-4.6 1.5-5.5 0-.9 1.1-2 2.5-2.3 2.4-.6 2.5-1 2.5-7.3v-6.7l8.8 8.4c4.8 4.7 8.8 8.5 8.9 8.5zm191.4 14c-.7 7.7-1.4 15.8-1.7 18.1l-.6 4.1-14.1.7c-7.8.4-17.2.9-20.9 1.3-3.8.3-6.8.2-6.8-.3s2.2-2.5 4.8-4.4c2.6-1.9 6.5-5.2 8.7-7.2 2.2-2 6-5.2 8.5-7.1 2.5-1.9 6-5.3 7.9-7.5 1.9-2.3 3.9-3.8 4.4-3.5.6.3.7.1.3-.5-.4-.7.8-2.5 2.8-4.3 2-1.7 3.5-3.4 3.4-3.7-.1-.4.7-2.2 1.8-3.9l1.9-3.3.3 3.8c.2 2-.1 10-.7 17.7zm-236-16.9c2.4.8 7.4 1.6 11.1 1.7 7.3.2 7.5.4 5.7 5.6-.9 2.4-1.6 3.1-2.8 2.6-2.9-1.2-4.5-1-4.9.6-.2 1.1 1.1 2.1 4.2 3.3 4.8 1.8 11.2 8.2 14.7 14.6 1.1 1.9 3.6 6.2 5.5 9.5 3.7 6.2 3.9 8.5 1.8 19.1-.5 2.8-.1 3.3 6.3 7.4 10.4 6.9 14.3 9 16.3 9 1 0 2 .3 2.2.7.4 1 8.8 5.1 11.3 5.6 1.9.4 1.9.4.2 1.2-1.1.5-4.6-.2-9.2-1.8-4.2-1.4-7.7-2.1-8.1-1.6-.5.8 3.5 2.9 5.5 2.9.4 0 1.6.7 2.7 1.5 1.8 1.4 1.7 1.5-1.1 1-9.1-1.8-11.7-3-17.4-8.2-3.3-2.9-6.5-6.9-7.2-8.7-.7-1.9-1.7-3.2-2.4-3-1.6.7-33-29-36-34-3.6-6.2-4.9-13.6-4.1-22.9.4-4.2.9-7.7 1.1-7.7.1 0 2.2.7 4.6 1.6zm104.7 20.2c-.2.4.7 1.8 2 3.2 2.6 2.9 2.9 5.5.5 6.5-2.4.8-5.6-3.1-4.9-5.9.3-1.2.6-2.7.6-3.4 0-.6.5-1.2 1-1.2.6 0 .9.3.8.8zm159.1 16.1c1.5 1.1 3.9 2.3 5.4 2.6 2.3.6 3.9 2.5 2.2 2.5-1.2 0-10.4-5-11-6-1-1.6.4-1.2 3.4.9zm-1.9 3.2c3.8 1.8 7 3.5 7 4 0 .4-3.2 4.2-7.2 8.4-6.9 7.3-15.2 13.4-16.5 12.1-.3-.3.6-1 2-1.5 3.8-1.5 4.8-4.1 5.4-15.6.3-5.8 1-10.5 1.4-10.5.5 0 4 1.4 7.9 3.1zm-26.2 3.1c.7.7 1.2 1.5 1.2 1.9 0 .3-4.2.9-9.2 1.2-5.1.3-23.2 1.5-40.3 2.6-17 1.1-33.1 2.3-35.6 2.7-4.8.6-6.4-.2-5-2.4.7-1.2 16.3-2.5 73.1-6.1 7.4-.4 13.7-.9 14.1-1 .3 0 1 .4 1.7 1.1zM201 374.9c0 1.6-.9 2-5.2 2.5-7.6.8-61.3 4.5-74.8 5.1-11.4.6-11.5.6-9.3-1.3 1.6-1.5 4.4-2 12-2.5 13.7-.9 51.9-3.7 63.3-4.6 5.2-.5 10.5-.9 11.8-1 1.6-.1 2.2.5 2.2 1.8zm112.5 11.6c-3.8 1.6-11.3 3-10.2 1.8 1-1 8.5-3.1 11.2-3.1 1.5 0 1.2.3-1 1.3zm-162.7 10.2c-1 .2-2.8.2-4 0-1.3-.2-.5-.4 1.7-.4 2.2-.1 3.2.1 2.3.4zm-3.5 2.6c7.9 1.4 7.9 2.7 0 2.7-5.6 0-11.5-1.9-12.8-4.1-.6-.9 0-1.1 2.6-.5 1.9.3 6.5 1.2 10.2 1.9z"/><path d="M336.1 101.6c0 1.1.3 1.4.6.6.3-.7.2-1.6-.1-1.9-.3-.4-.6.2-.5 1.3zM331.6 135.7c-.3.3-.5 2.5-.5 4.7.2 3 .3 3.4.6 1.3.2-1.5.9-2.5 1.4-2.2.5.4.9-.3.9-1.4 0-2.1-1.3-3.5-2.4-2.4zM336.1 142.6c0 1.1.3 1.4.6.6.3-.7.2-1.6-.1-1.9-.3-.4-.6.2-.5 1.3zM335.6 151.5c-.3.9-.5 3.1-.5 4.8.1 2.7.3 2.4.9-1.3.8-4.8.6-6.1-.4-3.5zM335.2 163c0 1.9.2 2.7.5 1.7.2-.9.2-2.5 0-3.5-.3-.9-.5-.1-.5 1.8zM326 166c0 1.1.2 2 .4 2s.6-.9.9-2c.3-1.1.1-2-.4-2s-.9.9-.9 2zM335.1 172.2c0 2.1-.5 3.8-1.1 3.8-.5 0-1 1-1 2.2 0 1.8 1.3 1.8 1.6 0 0-.4.4-1.4.8-2.4.4-.9.6-2.9.3-4.5-.3-2.3-.4-2.2-.6.9zM203 230.8c0 1.4 3.6 4.2 5.9 4.7 2.8.5 2.7-.5-.6-3.2-2.6-2.3-5.3-3-5.3-1.5z"/><path d="M199 235.9c0 .5.7 1.1 1.5 1.5.8.3 1.4.9 1.3 1.4-.2.5 2 3.6 4.9 6.8 2.8 3.2 6 7.1 7.2 8.5 1.1 1.4 4.5 3.9 7.5 5.5 5.2 2.7 5.6 2.8 6.8 1.1.8-1.1 2.9-1.9 5.1-2 3.2-.2 4.9-1.4 11.5-8 7.2-7.2 7.8-8 7.4-11.2-.2-1.9-.8-3.5-1.3-3.5-.4 0-2.1 1.6-3.6 3.6-1.5 2.1-4.1 5.1-5.7 6.8-1.5 1.7-3.9 4.4-5.2 5.9-4.5 5.4-12.5 5.2-16.4-.3-3.7-5.2-9.3-11-10.6-11-.7 0-2.9-1.4-4.7-3-3.4-3-5.7-3.8-5.7-2.1z"/><path d="M240 241c0 .5.5 1 1 1 .6 0 1-.5 1-1 0-.6-.4-1-1-1-.5 0-1 .4-1 1zM152.2 244c0 1.4.2 1.9.5 1.2.2-.6.2-1.8 0-2.5-.3-.6-.5-.1-.5 1.3zM243.5 256.3c-4.1 2.6-6.3 7.6-5 11.7.9 2.8 7.6 6 12.4 6 3.3 0 4.7-.7 7.6-3.5 6.1-6.2 3.9-14.5-3.9-14.5-1.8 0-4.6-.2-6.2-.5-1.6-.2-3.8.1-4.9.8zm12.5 2.6c0 1.1-.4 2.3-1 2.6-.5.3-1 1.5-1 2.6 0 1-.4 1.9-1 1.9-.5 0-1-.8-1-1.7 0-1.5-.2-1.4-1.6.3-.8 1-1.3 1.4-1 .7.4-.6.2-1.4-.3-1.7-.6-.4-.5-1.8.2-3.6.9-2.3 1.7-3 3.9-3 2.1 0 2.8.5 2.8 1.9zm-6.5 8.9c-.6.7-3.4-1.1-2.9-1.9.3-.5 1.1-.3 1.9.4.7.6 1.2 1.3 1 1.5zM199.9 263.9c-3.1 3.1-3.7 6.6-1.6 9.5 2.8 3.8 16.9 4.3 21 .8 2.2-1.9 2.3-8 .1-11-2-2.8-5.5-2.8-7.3 0l-1.4 2.2-.8-2.2c-1.3-3.3-6.3-3-10 .7zM278 264.1c-4.1 1.2-7 4.2-7 7.4 0 3.4 4.3 7.9 8.7 9.4 3.3 1.1 4.5 1 8.1-.4 4.7-1.9 5.8-4.3 4.8-10-.4-2.2-1.7-4.2-3.5-5.5-3.1-2.2-5.6-2.4-11.1-.9zM167.6 269.4c-7.4 2.3-11.4 9.7-7.9 14.4 1.7 2.4 2.8 2.7 8.3 3 7.4.4 11.3-1 14-4.8 3-4.2.9-9.8-4.7-12.8-2.6-1.4-4.5-1.4-9.7.2zm12.8 11.1c-2.6 1.9-3.2.9-.8-1.4 1-1 2.1-1.4 2.3-.9.1.5-.5 1.5-1.5 2.3zM308.1 280.3c-.1 1-.5 1.5-1.1 1.2-.5-.3-1 .1-1 .9 0 .9.5 1.6 1 1.6 1.4 0 2.3-2.5 1.7-4.2-.3-.8-.6-.6-.6.5zM192.3 281.1c-4.1 1.2-6.5 4.8-6.1 9.1.4 4.8 5.2 7 13.7 6.5 7.9-.4 10.6-2.9 9.6-8.7-1.2-7-7.8-9.6-17.2-6.9zM229.8 282c-4.2 2.3-7.6 6.6-8.4 10.7-.4 2.3.1 3.7 2.2 6.2 2.6 3.2 2.9 3.3 8.2 2.6 13.1-1.6 18.2-4.7 18.2-11 0-7.3-2.1-9.1-11.3-10-4-.4-6-.1-8.9 1.5zM306.6 287.7c-.6 1.4-.5 1.5.5.6.7-.7 1-1.5.7-1.8-.3-.3-.9.2-1.2 1.2zM147.3 296.2c-.2 1.8 0 2 .7.8 1.2-1.8 1.3-3 .2-3-.4 0-.9 1-.9 2.2zM173.4 299c-1.2.4-3.1 2.1-4.4 3.7-1.8 2.3-2.1 3.7-1.8 8.1.6 7.4 2.2 8.6 11.4 9 8.7.5 10.7-.7 12.4-6.9 1.5-5.4-.5-10.7-5-13-3.6-2-9-2.4-12.6-.9zM206.1 305.8c-5.5 2.4-7.1 4.5-7.1 9.8 0 6.2 2.4 8.6 9.3 9.2 4.8.4 6.3 0 10.1-2.2 5.5-3.2 7.6-6 7.6-10.1 0-7.2-10.4-10.6-19.9-6.7zM151 308.4c0 .9.5 1.6 1 1.6.6 0 1-.4 1-.9 0-.6-.4-1.3-1-1.6-.5-.3-1 .1-1 .9zM199.3 330.3c-4.9 1.8-7.5 4.9-8 9.9-.4 3.7-.1 4.9 2.1 7.5 4.1 4.8 10.8 7.7 16.3 6.9 9.3-1.2 14.1-6.7 12.9-14.8-1.1-7.2-6.4-10.9-15.4-10.7-2.6 0-6.2.6-7.9 1.2zM360.5 147.9l-4 1.8 7-.1c6.1-.1 8 .4 14.7 3.6 4.9 2.3 8 3.3 8.4 2.6 1.1-1.8-3-4.8-10.2-7.3-8.3-2.9-10.6-3-15.9-.6zM91.6 215.8c-.9 1.5-15.5 5.4-20.7 5.6-6.8.2-7.4 2.3-1.9 7.6 3.9 3.7 4.6 4 9.9 4 7.5 0 11.6-2.7 15.4-10 1.5-3 2.7-6 2.7-6.7 0-1.4-4.6-1.8-5.4-.5zm-.8 5.3c-2.2 1.3-16.5 4.9-19.2 4.9-3.5 0 .2-1.8 5.4-2.6 2.5-.4 5.8-1.3 7.5-2 1.6-.7 4.1-1.3 5.5-1.3 2.1 0 2.3.1.8 1zM84.8 234.5c-.2.3-1.9.6-3.6.8-3.3.4-4.5 2-1.8 2.5 2.2.5 9.6-1.7 9.6-2.8 0-1-3.3-1.4-4.2-.5zM335.2 234c0 1.9.2 2.7.5 1.7.2-.9.2-2.5 0-3.5-.3-.9-.5-.1-.5 1.8zM336.3 246c0 3 .2 4.3.4 2.7.2-1.5.2-3.9 0-5.5-.2-1.5-.4-.2-.4 2.8zM335.1 260.7c-.1 2.8.3 3.3 3.5 4.3 4.1 1.4 9 .7 11.6-1.7 3.1-2.8 2-3.6-1.3-.9-4.9 4.1-12.4 2.8-13.2-2.3-.4-2.3-.4-2.3-.6.6zM152 343.9c0 4.1 1.4 6.1 3.2 4.3 1.4-1.4-.1-8.2-1.8-8.2-1 0-1.4 1.2-1.4 3.9zM162 358c0 .5.5 1 1 1 .6 0 1-.5 1-1 0-.6-.4-1-1-1-.5 0-1 .4-1 1z"/></svg>